PathFileType	4	(X/Y/Z)	/Users/itak/Documents/Research/Walk-IL/dataset/trc/00136_00007.trc
DataRate	CameraRate	NumFrames	NumMarkers	Units	OrigDataRate	OrigDataStartFrame	OrigNumFrames
100.000000	100.000000	4	53	mm	100.000000	370	740
Frame#	Time	RPSI			LPSI			L3			STRN			T10			C7			CLAV			RBAK			LBAK			LSHO			LUPA			LAEL			LAOL			LWTS			LWPS			LFRA			LIFD			LHPS			LHTS			RSHO			RUPA			RAEL			RAOL			RWTS			RWPS			RFRA			RIFD			RHTS			RHPS			RBHD			LFHD			RFHD			LBHD			LHIP			RHIP			RASI			LASI			LKNE			LTHI			LANK			LTIP			LTOE			LMT1			LMT5			LHEE			RKNE			RTHI			RANK			RTIP			RTOE			RMT1			RMT5			RHEE			
		X1	Y1	Z1	X2	Y2	Z2	X3	Y3	Z3	X4	Y4	Z4	X5	Y5	Z5	X6	Y6	Z6	X7	Y7	Z7	X8	Y8	Z8	X9	Y9	Z9	X10	Y10	Z10	X11	Y11	Z11	X12	Y12	Z12	X13	Y13	Z13	X14	Y14	Z14	X15	Y15	Z15	X16	Y16	Z16	X17	Y17	Z17	X18	Y18	Z18	X19	Y19	Z19	X20	Y20	Z20	X21	Y21	Z21	X22	Y22	Z22	X23	Y23	Z23	X24	Y24	Z24	X25	Y25	Z25	X26	Y26	Z26	X27	Y27	Z27	X28	Y28	Z28	X29	Y29	Z29	X30	Y30	Z30	X31	Y31	Z31	X32	Y32	Z32	X33	Y33	Z33	X34	Y34	Z34	X35	Y35	Z35	X36	Y36	Z36	X37	Y37	Z37	X38	Y38	Z38	X39	Y39	Z39	X40	Y40	Z40	X41	Y41	Z41	X42	Y42	Z42	X43	Y43	Z43	X44	Y44	Z44	X45	Y45	Z45	X46	Y46	Z46	X47	Y47	Z47	X48	Y48	Z48	X49	Y49	Z49	X50	Y50	Z50	X51	Y51	Z51	X52	Y52	Z52	X53	Y53	Z53	

371	3.7	-588.6365356445312	1091.41015625	-409.7718811035156	-647.766845703125	1108.841918945312	-529.7711181640625	-624.25244140625	1136.84716796875	-470.66015625	-411.5648193359375	1325.763671875	-564.2526245117188	-648.9569091796875	1291.719116210938	-458.3755798339844	-603.2372436523438	1580.64453125	-486.1438598632812	-436.8848266601562	1462.288940429688	-548.9413452148438	-631.5358276367188	1394.204345703125	-389.7737426757812	-649.294677734375	1566.501953125	-580.25830078125	-591.0287475585938	1552.92431640625	-672.629638671875	-632.2843627929688	1432.83349609375	-749.0903930664062	-605.8344116210938	1227.68408203125	-824.9840698242188	-646.4857177734375	1192.442504882812	-756.0444946289062	-455.6624755859375	999.8233642578125	-877.6051635742188	-535.7550048828125	958.3978881835938	-884.5228271484375	-574.446533203125	1121.01953125	-862.0123901367188	-403.4133911132812	814.333251953125	-909.0926513671875	-495.5591735839844	894.6453857421875	-912.8099975585938	-429.8678588867188	920.14501953125	-916.0982666015625	-487.6982727050781	1549.12451171875	-338.594482421875	-488.8824462890625	1475.394653320312	-273.8631286621094	-529.432861328125	1185.854736328125	-250.1846008300781	-561.3187866210938	1188.253784179688	-341.584716796875	-429.8663330078125	926.3336181640625	-294.9601135253906	-495.76220703125	919.2542724609375	-246.5952453613281	-513.16552734375	1110.61767578125	-240.2625579833984	-441.0689392089844	731.4297485351562	-320.6172485351562	-416.0453491210938	814.3236694335938	-296.2969055175781	-474.2341613769531	815.0739135742188	-250.9783477783203	-533.0567016601562	1744.505981445312	-424.7195129394531	-385.1408996582031	1803.015380859375	-577.208984375	-363.986328125	1791.115356445312	-449.4168701171875	-562.0629272460938	1762.070556640625	-555.9387817382812	-628.8486328125	1025.281494140625	-672.3265991210938	-425.1881408691406	986.290771484375	-375.0739440917969	-377.3390197753906	1060.8818359375	-455.2201538085938	-505.5294799804688	1076.142456054688	-688.427490234375	-672.2405395507812	524.68017578125	-639.258544921875	-680.1007080078125	674.018310546875	-655.1198120117188	-834.19970703125	41.62874603271484	-537.402099609375	-803.5457153320312	294.9198913574219	-588.2817993164062	-611.56884765625	33.50878143310547	-623.8629760742188	-659.348876953125	39.95377349853516	-547.4431762695312	-748.1361694335938	34.00352096557617	-629.7896118164062	-858.6569213867188	48.27730178833008	-447.90869140625	-284.9432067871094	544.8680419921875	-522.218505859375	-358.4903869628906	796.4786987304688	-420.3411560058594	-283.7451782226562	29.94481468200684	-617.1301879882812	-279.8058776855469	407.0299987792969	-533.2649536132812	-87.44264221191406	112.3568572998047	-698.41455078125	-142.1377105712891	82.16857147216797	-733.6867065429688	-156.2973480224609	66.66509246826172	-616.3286743164062	-346.7478332519531	23.43819046020508	-653.9762573242188	
372	3.71	-580.6328735351562	1089.597290039062	-414.2424621582031	-639.7285766601562	1107.258178710938	-534.2210083007812	-616.1821899414062	1135.141967773438	-475.0714416503906	-403.4253234863281	1324.000366210938	-567.9656372070312	-641.0663452148438	1289.961791992188	-462.6947937011719	-595.2417602539062	1578.881713867188	-490.3086242675781	-428.7789001464844	1460.499755859375	-552.5595703125	-624.0680541992188	1392.384033203125	-394.1495361328125	-640.994873046875	1564.720336914062	-584.63720703125	-582.4299926757812	1551.140625	-676.7778930664062	-623.157470703125	1430.9560546875	-753.3257446289062	-595.686279296875	1225.782348632812	-828.9498291015625	-636.2532958984375	1190.278564453125	-760.0739135742188	-442.8471069335938	999.6416625976562	-880.9376220703125	-522.4913940429688	957.1851196289062	-888.0220947265625	-563.1912231445312	1119.362915039062	-865.7896118164062	-387.7629089355469	815.2990112304688	-912.2091674804688	-481.2436218261719	893.9180908203125	-916.1278076171875	-415.9652404785156	920.2894287109375	-919.3021240234375	-480.3159790039062	1547.224243164062	-342.3293762207031	-481.8367614746094	1473.400390625	-277.6673583984375	-523.1962890625	1183.8505859375	-254.8967437744141	-554.4295654296875	1186.5263671875	-346.3423156738281	-424.1920776367188	924.1229858398438	-299.8450012207031	-490.2931518554688	917.1649169921875	-251.7259521484375	-507.1234130859375	1108.531494140625	-245.0693817138672	-436.0484008789062	729.3289184570312	-326.110595703125	-410.8646545410156	812.0120239257812	-301.5071411132812	-469.0628356933594	812.907470703125	-256.3515014648438	-525.8004150390625	1742.71728515625	-428.688720703125	-376.4558715820312	1801.279663085938	-579.7288818359375	-356.5243530273438	1789.304321289062	-451.776611328125	-553.6126708984375	1760.388793945312	-560.1942138671875	-620.7308349609375	1023.908020019531	-676.890380859375	-417.4016418457031	984.1370239257812	-379.60546875	-369.2969360351562	1058.88427734375	-459.4341430664062	-497.1881713867188	1074.638793945312	-692.6661987304688	-667.01953125	523.7862548828125	-642.0724487304688	-673.6844482421875	673.188720703125	-658.5032348632812	-833.9102172851562	42.68432235717773	-537.3094482421875	-800.8641357421875	295.5350341796875	-589.666259765625	-611.385009765625	33.21018600463867	-624.0049438476562	-659.1729125976562	40.04184722900391	-547.6057739257812	-747.97021484375	34.02700805664062	-629.798583984375	-858.2245483398438	50.0649528503418	-447.76611328125	-280.3614196777344	541.5107421875	-523.6097412109375	-352.3929748535156	793.328369140625	-423.57275390625	-259.8973388671875	29.39484786987305	-627.8355102539062	-271.362060546875	404.7879333496094	-536.2447509765625	-64.54632568359375	119.1221466064453	-702.9613037109375	-117.2952346801758	88.00836944580078	-740.0431518554688	-133.6782531738281	69.94493103027344	-623.49755859375	-322.0116577148438	21.8585319519043	-666.2092895507812	
373	3.72	-572.3516845703125	1087.783081054688	-418.6411437988281	-631.4263916015625	1105.689819335938	-538.58935546875	-607.85595703125	1133.436279296875	-479.4017333984375	-395.0968627929688	1322.31982421875	-571.6077270507812	-632.9671020507812	1288.214965820312	-466.8878479003906	-587.0768432617188	1577.122314453125	-494.3497009277344	-420.5235290527344	1458.78076171875	-556.088623046875	-616.3870239257812	1390.582153320312	-398.3915710449219	-632.5404663085938	1562.915283203125	-588.8548583984375	-573.75634765625	1549.40087890625	-680.8038940429688	-613.9696044921875	1429.083374023438	-757.3834228515625	-585.5855712890625	1223.847412109375	-832.66796875	-626.0685424804688	1188.139770507812	-763.835693359375	-430.2427978515625	999.3240966796875	-883.907470703125	-509.4463500976562	955.8973388671875	-891.1309204101562	-552.0450439453125	1117.643310546875	-869.2622680664062	-372.4035949707031	816.1649780273438	-914.8076171875	-467.183837890625	893.0778198242188	-919.0073852539062	-402.3290405273438	920.2813110351562	-922.084716796875	-472.7564392089844	1545.372680664062	-345.9699096679688	-474.5796813964844	1471.458740234375	-281.376953125	-516.714111328125	1181.903076171875	-259.5084228515625	-547.335693359375	1184.851684570312	-350.992919921875	-418.2744445800781	921.9735717773438	-304.6497192382812	-484.5625305175781	915.135498046875	-256.7680053710938	-500.83154296875	1106.509643554688	-249.7733306884766	-430.732177734375	727.3021240234375	-331.5221557617188	-405.4197387695312	809.7789916992188	-306.6499938964844	-463.6212768554688	810.8030395507812	-261.6459350585938	-518.3955688476562	1740.983154296875	-432.5420227050781	-367.6730041503906	1799.589477539062	-582.1578979492188	-348.9521484375	1787.549926757812	-454.0614929199219	-545.05224609375	1758.753173828125	-564.3468627929688	-612.3782348632812	1022.580139160156	-681.3859252929688	-409.2998962402344	982.0098266601562	-384.1163635253906	-360.9983215332031	1056.9560546875	-463.6307678222656	-488.6331787109375	1073.220581054688	-696.8662109375	-661.5150146484375	522.9769287109375	-645.0006713867188	-666.9797973632812	672.433837890625	-661.9891967773438	-833.6287231445312	43.88092041015625	-537.340576171875	-798.0831909179688	296.32275390625	-591.1891479492188	-611.2007446289062	32.90818405151367	-624.1355590820312	-659.0208740234375	40.18861389160156	-547.8250732421875	-747.8173828125	34.02391815185547	-629.8707275390625	-857.8057250976562	52.11648178100586	-447.7559814453125	-275.7151184082031	538.1556396484375	-525.12841796875	-346.0363159179688	790.2157592773438	-426.92724609375	-237.5139617919922	29.19626808166504	-637.3825073242188	-263.2027893066406	402.6352233886719	-539.0549926757812	-43.28142929077148	125.6511383056641	-706.5020751953125	-94.08839416503906	93.76189422607422	-745.3034057617188	-112.5976409912109	73.25300598144531	-629.6246337890625	-298.7532348632812	20.78206825256348	-677.1819458007812	
374	3.73	-563.7938842773438	1085.997436523438	-422.9812927246094	-622.8321533203125	1104.14599609375	-542.8980102539062	-599.2731323242188	1131.743041992188	-483.67333984375	-386.5750427246094	1320.741455078125	-575.1736450195312	-624.6524658203125	1286.490600585938	-470.9789428710938	-578.7469482421875	1575.372436523438	-498.26904296875	-412.1123962402344	1457.152587890625	-559.5230102539062	-608.49072265625	1388.808227539062	-402.5135498046875	-623.9378662109375	1561.113403320312	-592.9129028320312	-565.0027465820312	1547.723999023438	-684.7060546875	-604.716796875	1427.24169921875	-761.2697143554688	-575.5239868164062	1221.908325195312	-836.1422729492188	-615.9365844726562	1186.054565429688	-767.3340454101562	-417.8660278320312	998.8824462890625	-886.5203857421875	-496.6370544433594	954.5531005859375	-893.8624267578125	-541.0111694335938	1115.887451171875	-872.4365234375	-357.4336242675781	816.8570556640625	-916.90966796875	-453.4236145019531	892.1417846679688	-921.4692993164062	-388.9839782714844	920.1268310546875	-924.45458984375	-465.0328979492188	1543.582397460938	-349.5093994140625	-467.1265563964844	1469.584350585938	-284.9871826171875	-509.9786682128906	1180.024169921875	-264.0183410644531	-540.0420532226562	1183.241943359375	-355.54541015625	-412.1051940917969	919.8978271484375	-309.364501953125	-478.5560913085938	913.1791381835938	-261.7095642089844	-494.2804565429688	1104.563232421875	-254.3752136230469	-425.1211547851562	725.359619140625	-336.8355102539062	-399.6917114257812	807.6405029296875	-311.7074279785156	-457.905029296875	808.77294921875	-266.8445739746094	-510.8421630859375	1739.316650390625	-436.2721252441406	-358.7998657226562	1797.959350585938	-584.49853515625	-341.271484375	1785.868286132812	-456.2705078125	-536.38671875	1757.173217773438	-568.3895874023438	-603.7587280273438	1021.287536621094	-685.8167114257812	-400.8826904296875	979.9545288085938	-388.5755920410156	-352.4306640625	1055.129028320312	-467.7821960449219	-479.8384704589844	1071.893432617188	-701.0216064453125	-655.7027587890625	522.2406005859375	-648.0682983398438	-659.9689331054688	671.7451782226562	-665.5985107421875	-833.3757934570312	45.23539733886719	-537.5393676757812	-795.18310546875	297.2808532714844	-592.8966674804688	-611.0274658203125	32.62197494506836	-624.2412719726562	-658.9041137695312	40.39134216308594	-548.0999755859375	-747.6862182617188	33.99040985107422	-630.0202026367188	-857.43798828125	54.44699859619141	-447.9344482421875	-270.8645629882812	534.8816528320312	-526.8175659179688	-339.34033203125	787.2225341796875	-430.38232421875	-216.9912414550781	29.15757369995117	-645.7324829101562	-255.2984771728516	400.5606384277344	-541.7472534179688	-23.87728309631348	131.5425415039062	-709.062744140625	-72.79051971435547	99.02114868164062	-749.4708862304688	-93.39443206787109	76.30270385742188	-634.672119140625	-277.3737487792969	20.03556060791016	-686.8653564453125	
